<?xml version="1.0" encoding="UTF-8"?>
<svg id="Layer_2" data-name="Layer 2" xmlns="http://www.w3.org/2000/svg" xmlns:xlink="http://www.w3.org/1999/xlink" viewBox="0 0 464.66 429.13">
  <defs>
    <style>
      .cls-1 {
        fill: #603913;
      }
    </style>
  </defs>
  <g id="Layer_1-2" data-name="Layer 1">
    <image width="481" height="360" transform="translate(0 187.37) rotate(-29.45) scale(.79 .77) skewX(-.64)" xlink:href="../pngtree-green-aspen-leaf-single-detail-alive-png-image_12865748.png"/>
    <g>
      <path class="cls-1" d="M100.5,239.75c.15-1.09.23-1.63.39-2.71,7.32,1.77,10.99,2.65,18.31,4.39-.15.96-.22,1.44-.35,2.4-7.35-1.62-11.02-2.43-18.36-4.08Z"/>
      <path class="cls-1" d="M110.09,220.2c4.84,2.75,7.28,4.09,12.18,6.69-.19.71-.29,1.07-.47,1.79-3.88-.6-5.83-.88-9.72-1.4,3.56,1.89,5.35,2.82,8.94,4.62-.17.73-.25,1.1-.41,1.84-5.36-.69-8.04-1-13.42-1.54.19-.96.29-1.43.49-2.38,3.32.51,4.97.78,8.28,1.33-3.08-1.57-4.62-2.37-7.68-4.01.19-.8.28-1.2.48-1.99,3.35.44,5.03.68,8.37,1.18-3.08-1.5-4.62-2.27-7.68-3.82.25-.93.38-1.39.64-2.31Z"/>
      <path class="cls-1" d="M121.86,222.51c-1.39.28-3.11.05-5.18-.72-2.07-.77-3.58-1.75-4.52-2.96-.94-1.21-1.18-2.53-.73-3.9s1.4-2.19,2.82-2.46c1.42-.26,3.14.07,5.17.96,2.03.89,3.49,1.94,4.39,3.14.9,1.2,1.14,2.4.73,3.65-.41,1.25-1.29,2-2.68,2.28ZM121.54,217.3c-.61-.67-1.56-1.29-2.85-1.83-1.29-.54-2.37-.78-3.23-.7-.87.08-1.42.46-1.64,1.14-.22.68-.02,1.36.6,2.04.62.68,1.59,1.26,2.89,1.77,1.3.5,2.38.71,3.24.63.86-.08,1.39-.43,1.6-1.07.21-.64,0-1.29-.6-1.97Z"/>
      <path class="cls-1" d="M125.17,213.73c-1.13.02-2.63-.38-4.49-1.21-2.81-1.26-4.21-1.89-7.02-3.15.32-.85.48-1.27.81-2.11,2.8,1.31,4.2,1.96,7,3.26,1.06.49,1.87.74,2.45.76.58.02.96-.2,1.14-.64.22-.54.07-1.13-.45-1.8s-1.27-1.25-2.25-1.73c-2.61-1.29-3.91-1.93-6.52-3.22.35-.83.53-1.24.89-2.06,3.63,1.86,5.45,2.79,9.08,4.64.83.42,1.88.91,3.15,1.46-.31.71-.47,1.07-.77,1.78-.77-.28-1.51-.59-2.21-.93,0,.01,0,.02-.01.03.66.54,1.11,1.14,1.36,1.79.25.65.26,1.26.04,1.83-.34.86-1.08,1.29-2.21,1.31Z"/>
      <path class="cls-1" d="M129.26,205.67c-.71.03-1.59-.22-2.64-.77-5.99-3.14-8.98-4.72-14.97-7.88.39-.84.58-1.26.98-2.09,5.96,3.26,8.94,4.88,14.91,8.11.35.19.64.28.86.26s.39-.14.5-.37c.11-.22.14-.56.09-1,.71.25,1.06.38,1.76.63.33.73.32,1.44-.01,2.14-.29.61-.79.93-1.5.97Z"/>
      <path class="cls-1" d="M130.3,201.22c-1.41-.1-3.11-.7-5.11-1.82-1.21-.68-2.21-1.4-2.98-2.18-.77-.78-1.28-1.56-1.52-2.34-.23-.78-.18-1.51.18-2.18.24-.45.57-.78.99-.97.42-.2.94-.27,1.56-.23,0-.01,0-.02.02-.03-2.74-1.68-4.11-2.52-6.86-4.21.44-.8.67-1.2,1.13-1.99,5.65,3.58,8.48,5.37,14.14,8.93,1.61,1.01,2.65,1.65,3.12,1.9-.38.66-.57.99-.94,1.65-.27-.15-.79-.46-1.55-.93,0,.01,0,.02-.02.03.41.54.68,1.1.8,1.67.12.57.08,1.06-.14,1.48-.49.91-1.42,1.31-2.83,1.21ZM130.94,196.66c-.31-.59-.86-1.12-1.64-1.6-.97-.59-1.45-.88-2.41-1.47-.77-.47-1.49-.69-2.17-.67-.68.02-1.16.29-1.43.79-.28.53-.18,1.13.32,1.79.5.66,1.36,1.34,2.58,2.04,1.28.74,2.34,1.17,3.17,1.3.83.13,1.37-.05,1.64-.56.27-.5.25-1.04-.07-1.63Z"/>
      <path class="cls-1" d="M137.77,189.85c-.88-.06-1.89-.48-3.04-1.27-2.31-1.59-3.47-2.39-5.77-3.98-.33.52-.5.78-.82,1.3-.87-.59-1.3-.88-2.16-1.46.33-.53.5-.8.84-1.32-1.17-.81-1.75-1.21-2.92-2.02.15-.96.22-1.44.38-2.4.02-.02.02-.03.04-.06,1.48,1.05,2.22,1.58,3.7,2.63.55-.83.83-1.24,1.4-2.06.84.62,1.26.93,2.11,1.55-.56.81-.83,1.21-1.37,2.03,2.12,1.51,3.18,2.26,5.3,3.76.64.46,1.18.7,1.59.74.42.03.75-.13.99-.49.23-.34.36-.73.39-1.16.79.54,1.19.8,1.99,1.34.04.62-.17,1.27-.64,1.96-.45.67-1.11.97-1.99.91Z"/>
      <path class="cls-1" d="M141.37,176.81c-1.41,1.76-2.09,2.66-3.43,4.49,1.65,1.05,2.8,1.11,3.48.2.28-.37.42-.78.42-1.23,0-.44-.16-1-.45-1.67.84.11,1.26.17,2.09.28.49.8.75,1.61.79,2.43.04.82-.16,1.51-.6,2.1-.73.97-1.78,1.36-3.19,1.16-1.4-.2-3-.95-4.78-2.28-1.8-1.34-3-2.69-3.59-4.07-.59-1.38-.49-2.61.3-3.66.75-1,1.85-1.38,3.26-1.12,1.41.26,2.98,1.12,4.72,2.56.39.32.59.49.98.81ZM138.12,176.79c-.73-.59-1.41-.92-2.03-1-.62-.08-1.11.12-1.46.58-.32.42-.35.94-.1,1.54.25.61.75,1.25,1.5,1.93.87-1.19,1.32-1.79,2.22-2.95-.05-.04-.08-.06-.13-.1Z"/>
      <path class="cls-1" d="M146.88,178.44c-.55.07-1.15-.02-1.81-.27-.66-.25-1.31-.64-1.94-1.17-1.08-.91-1.71-1.86-1.86-2.86-.15-1,.18-1.99.99-2.93.34-.39.5-.58.84-.97-.17-.15-.26-.23-.43-.39-.55-.49-1.05-.77-1.52-.84-.47-.07-.86.08-1.17.45-.33.38-.53.85-.6,1.39-.07.54,0,1.09.2,1.65-.86-.24-1.29-.36-2.15-.59-.26-.82-.34-1.61-.25-2.37.09-.76.36-1.4.81-1.92.74-.86,1.66-1.24,2.72-1.14,1.07.1,2.16.68,3.28,1.71,1.85,1.71,2.78,2.56,4.63,4.26.31.29.69.61,1.13.97.44.36.82.64,1.12.85-.47.52-.71.78-1.17,1.31-.22-.11-.42-.23-.62-.36-.19-.13-.45-.32-.76-.58,0,0-.01.01-.02.02.56,1.31.53,2.33-.12,3.09-.33.39-.76.62-1.31.68ZM146.83,174.25c-.12-.55-.43-1.06-.96-1.53-.41-.37-.62-.55-1.03-.92-.35.4-.53.6-.87,1.01-.36.42-.5.86-.43,1.31.07.45.36.9.86,1.33.42.36.81.56,1.18.59.37.03.68-.1.92-.38.33-.39.43-.85.32-1.4Z"/>
      <path class="cls-1" d="M151.17,171.55c-1.41-.37-2.93-1.31-4.55-2.83-1.64-1.54-2.67-3.01-3.08-4.43-.41-1.42-.15-2.61.78-3.55.56-.57,1.22-.89,1.97-.96.75-.07,1.55.1,2.39.52.14.89.22,1.33.37,2.22-.57-.29-1.1-.42-1.59-.41-.48.01-.87.17-1.16.46-.47.48-.55,1.13-.25,1.95.31.82.97,1.72,1.97,2.69,1.01.97,1.92,1.6,2.74,1.89.82.29,1.44.21,1.89-.24.27-.28.41-.65.4-1.12,0-.47-.14-.99-.4-1.56.87.18,1.3.27,2.17.47.4.84.58,1.62.53,2.33-.05.72-.33,1.33-.84,1.85-.84.85-1.95,1.09-3.36.72Z"/>
      <path class="cls-1" d="M143.11,152.97c.66-.62.99-.93,1.65-1.55,2.26,2.44,3.39,3.65,5.65,6.09-.21-.61-.26-1.19-.14-1.76.12-.56.39-1.03.8-1.4.72-.64,1.65-.76,2.77-.36,1.12.4,2.26,1.29,3.44,2.65,2.17,2.5,3.25,3.75,5.42,6.25-.61.51-.91.77-1.51,1.29-2.14-2.4-3.21-3.59-5.34-5.99-.71-.8-1.37-1.33-1.98-1.6-.61-.27-1.11-.24-1.47.09-.46.41-.58,1-.37,1.77.21.77.73,1.59,1.56,2.48,2.05,2.2,3.07,3.29,5.12,5.49-.59.54-.88.81-1.45,1.36-5.67-5.91-8.5-8.87-14.15-14.8Z"/>
      <path class="cls-1" d="M167,158.87c-.71-.06-1.39-.33-2.06-.81.01-.78.02-1.17.04-1.95.44.24.86.38,1.27.42.41.04.73-.03.98-.22.29-.21.43-.52.42-.91,0-.39-.16-.78-.45-1.16-.23-.31-.49-.5-.77-.58-.28-.08-.75-.1-1.43-.06-1.18.08-2.14,0-2.87-.28-.73-.27-1.41-.78-2.02-1.54-.72-.89-1.07-1.77-1.06-2.67.02-.89.41-1.63,1.18-2.2.51-.38,1.1-.56,1.75-.55.65.02,1.33.23,2.02.64-.04.77-.06,1.16-.1,1.93-.79-.4-1.46-.4-2,0-.27.2-.42.43-.45.69-.03.26.07.54.3.83.16.2.32.35.49.43.16.08.39.13.68.14.29.01.73,0,1.3-.04.78-.05,1.43-.01,1.96.09.52.11.99.31,1.39.6.4.29.8.7,1.19,1.23.53.71.88,1.41,1.06,2.1.18.69.2,1.32.04,1.9-.16.58-.49,1.05-.98,1.42-.54.4-1.16.57-1.87.51Z"/>
      <path class="cls-1" d="M171.92,153.84c-1.33-.62-2.67-1.83-4-3.63-1.33-1.8-2.06-3.43-2.17-4.89-.11-1.46.42-2.58,1.57-3.33,1.16-.75,2.43-.8,3.79-.15,1.36.65,2.64,1.92,3.86,3.79,1.22,1.87,1.87,3.52,1.95,4.95.09,1.43-.39,2.47-1.44,3.15-1.05.68-2.23.71-3.56.09ZM174.59,149.79c-.14-.87-.6-1.89-1.39-3.06-.79-1.17-1.57-1.99-2.35-2.45-.78-.46-1.47-.5-2.04-.13-.57.37-.79,1-.64,1.87.15.87.64,1.88,1.46,3.03.82,1.15,1.62,1.95,2.4,2.4.77.45,1.42.51,1.96.16s.74-.95.6-1.82Z"/>
      <path class="cls-1" d="M174.36,142.27c-.99-1.54-1.67-2.56-2.03-3.04.66-.39.99-.58,1.66-.96.44.59.88,1.26,1.34,1.99.01,0,.02-.01.03-.02-.28-.79-.34-1.5-.17-2.14.17-.64.53-1.11,1.1-1.42.54-.3,1.12-.36,1.72-.19.6.17,1.15.54,1.66,1.12-.18-.75-.16-1.42.04-2.01.2-.59.57-1.01,1.09-1.27.85-.42,1.77-.32,2.72.3.95.63,1.82,1.7,2.63,3.22,1.6,2.98,2.39,4.48,3.99,7.46-.72.34-1.08.51-1.8.86-1.57-2.83-2.35-4.24-3.91-7.07-.47-.85-.95-1.45-1.44-1.81-.49-.36-.94-.43-1.35-.23-.44.22-.66.65-.65,1.27.01.62.26,1.34.74,2.16,1.61,2.79,2.42,4.19,4.04,6.98-.7.36-1.05.55-1.75.92-1.64-2.74-2.46-4.11-4.1-6.86-.51-.86-1.02-1.48-1.53-1.84-.5-.36-.95-.43-1.35-.22-.42.23-.61.68-.57,1.34s.32,1.38.81,2.17c1.69,2.71,2.54,4.07,4.23,6.78-.69.39-1.03.59-1.72,1-2.18-3.39-3.28-5.09-5.45-8.48Z"/>
      <path class="cls-1" d="M196.01,136.75c-2.14.83-3.19,1.27-5.28,2.18,1.03,1.65,2.07,2.25,3.13,1.81.44-.18.76-.46.96-.84.2-.38.33-.92.37-1.62.73.48,1.09.73,1.8,1.22.07.91-.06,1.71-.41,2.42-.35.71-.86,1.2-1.54,1.49-1.13.48-2.29.31-3.49-.52-1.2-.83-2.33-2.21-3.35-4.17-1.03-1.97-1.51-3.68-1.42-5.12.1-1.44.77-2.43,1.99-2.95,1.17-.49,2.36-.3,3.55.58,1.18.88,2.23,2.34,3.16,4.38.21.46.31.68.52,1.14ZM193.01,135.21c-.4-.84-.87-1.44-1.41-1.8-.54-.36-1.09-.42-1.63-.19-.49.21-.76.63-.82,1.25-.05.63.11,1.41.48,2.34,1.37-.6,2.05-.89,3.44-1.45-.03-.06-.04-.09-.07-.15Z"/>
      <path class="cls-1" d="M199.62,139.58c-1.19-.9-2.25-2.34-3.16-4.37-.91-2.02-1.27-3.74-1.04-5.16.23-1.42,1.01-2.37,2.35-2.83,1.33-.46,2.62-.22,3.83.71,1.21.93,2.2,2.43,2.99,4.49.79,2.06,1.05,3.79.8,5.18-.24,1.39-.97,2.28-2.18,2.69-1.21.42-2.4.18-3.59-.71ZM203.24,136.29c.06-.86-.16-1.94-.68-3.23-.52-1.3-1.11-2.26-1.79-2.87-.68-.61-1.35-.81-2.01-.58-.66.23-1.02.78-1.08,1.64-.05.87.2,1.94.76,3.23.56,1.28,1.17,2.23,1.84,2.84.67.61,1.31.8,1.93.59.62-.21.96-.75,1.02-1.61Z"/>
      <path class="cls-1" d="M204.73,129.03c-.58-1.54-1.02-2.66-1.32-3.34.81-.24,1.21-.36,2.03-.59.31.7.6,1.43.88,2.2.02,0,.03,0,.05-.01-.07-.81.08-1.51.43-2.1.36-.59.86-.97,1.5-1.14.98-.25,1.89.06,2.71.94.82.88,1.53,2.29,2.14,4.23.92,2.9,1.37,4.35,2.29,7.25-.8.19-1.2.29-1.99.49-.97-2.9-1.45-4.35-2.41-7.25-.37-1.11-.76-1.9-1.16-2.35-.41-.45-.87-.61-1.38-.48-.59.16-.96.61-1.11,1.35-.14.74-.03,1.61.33,2.62,1,2.79,1.5,4.19,2.5,6.98-.79.22-1.19.34-1.97.57-1.4-3.74-2.1-5.62-3.5-9.36Z"/>
      <path class="cls-1" d="M223.14,129.37c-2.34.38-3.5.6-5.8,1.08.71,1.8,1.63,2.57,2.8,2.35.48-.09.86-.3,1.15-.63.28-.32.52-.82.71-1.49.64.61.95.91,1.58,1.53-.11.89-.42,1.64-.91,2.26-.5.62-1.12.99-1.86,1.14-1.25.24-2.38-.15-3.43-1.18-1.05-1.03-1.9-2.58-2.54-4.67-.64-2.1-.78-3.84-.39-5.22.39-1.37,1.27-2.2,2.62-2.46,1.29-.25,2.46.17,3.48,1.25,1.02,1.08,1.78,2.7,2.31,4.84.12.48.18.72.3,1.2ZM220.41,127.3c-.23-.89-.58-1.56-1.06-2.01-.47-.45-1.01-.62-1.61-.5-.54.11-.9.46-1.08,1.05-.18.6-.18,1.38,0,2.35,1.51-.31,2.26-.46,3.78-.73-.02-.06-.02-.09-.04-.16Z"/>
      <path class="cls-1" d="M225.75,134.06c-.36-.38-.62-.89-.77-1.54-.16-.66-.16-1.23.01-1.69.17-.46.46-.72.87-.78s.8.1,1.16.49c.35.38.61.91.75,1.57.14.65.13,1.2-.03,1.65-.16.45-.44.71-.84.77-.4.06-.78-.1-1.14-.48Z"/>
      <path class="cls-1" d="M230.52,133.41c-.35-.39-.59-.91-.72-1.56-.14-.67-.11-1.23.07-1.68.19-.45.49-.7.91-.75.42-.05.8.13,1.15.52.34.39.58.93.7,1.59.12.65.09,1.2-.09,1.65-.18.45-.47.69-.88.74-.41.04-.78-.13-1.13-.52Z"/>
      <path class="cls-1" d="M235.35,132.94c-.34-.4-.56-.93-.67-1.58-.11-.67-.07-1.23.13-1.67.2-.44.52-.68.94-.71.42-.03.81.16,1.14.56s.55.94.65,1.61c.1.65.04,1.2-.15,1.64-.2.44-.5.67-.91.7-.41.03-.78-.15-1.12-.55Z"/>
    </g>
  </g>
</svg>